<svg class="dn" height="0" version="1.1" width="0"
  xmlns="http://www.w3.org/2000/svg">
  <defs>
    <!--list-icon-->
    <g id="list-icon">
      <path d="M8.9965 2.6845l.6147-.571C10.489 1.4192 11.5887 1.0044 12.7827 1 15.6604.9896 17.9963 3.368 18 6.312c.0071 5.6215-7.6599 10.8832-8.9862 10.888C7.6875 17.2048.007 11.9987 0 6.3771-.0037 3.433 2.326 1.038 5.2038 1.0275c1.196-.0044 2.2984.404 3.1787 1.0927l.614.5643zm1.0087 12.0885c.8859-.5693 1.8622-1.3433 2.7486-2.2029 2.1612-2.0958 3.4486-4.334 3.4462-6.2558-.0025-1.9575-1.5382-3.521-3.4108-3.5143-.9441.0034-1.8252.4038-2.4674 1.1025L9.0036 5.3369 7.6777 3.9095c-.6428-.692-1.524-1.0855-2.4674-1.082C3.3343 2.8341 1.7975 4.414 1.8 6.3747c.0024 1.9203 1.2941 4.1468 3.4589 6.2253.888.8526 1.8656 1.6189 2.7523 2.1815.3779.2397.7167.4273.9784.5461.2991-.1216.6379-.3119 1.0156-.5547z" fill="currentColor"/>
    </g>
    <!--menu-icon-->
    <g id="menu-icon">
      <path fill-rule="evenodd" clip-rule="evenodd" d="M20 18.6667V17.3333C20 16.9653 19.7013 16.6667 19.3333 16.6667H0.666667C0.298667 16.6667 0 16.9653 0 17.3333V18.6667C0 19.0347 0.298667 19.3333 0.666667 19.3333H19.3333C19.7013 19.3333 20 19.0347 20 18.6667ZM20 2.66667V1.33334C20 0.965338 19.7013 0.666672 19.3333 0.666672H0.666667C0.298667 0.666672 0 0.965338 0 1.33334V2.66667C0 3.03467 0.298667 3.33334 0.666667 3.33334H19.3333C19.7013 3.33334 20 3.03467 20 2.66667ZM19.3333 11.3333H0.666667C0.298667 11.3333 0 11.0347 0 10.6667V9.33334C0 8.96534 0.298667 8.66667 0.666667 8.66667H19.3333C19.7013 8.66667 20 8.96534 20 9.33334V10.6667C20 11.0347 19.7013 11.3333 19.3333 11.3333Z" fill="#142032"/>
    </g>

    <!-- card-icon -->
    <g id="hpa-cart">
      <path xmlns="http://www.w3.org/2000/svg" fill-rule="evenodd" clip-rule="evenodd" d="M14.667 12.889a1.78 1.78 0 01-1.778 1.778H3.11a1.78 1.78 0 01-1.778-1.778V6.222H4V8.89h1.333V6.222h5.334V8.89H12V6.222h2.667v6.667zM5.333 4A2.67 2.67 0 018 1.333 2.67 2.67 0 0110.667 4v.889H5.333V4zM12 4.889V4a4 4 0 00-8 0v.889H0v8A3.11 3.11 0 003.111 16h9.778A3.11 3.11 0 0016 12.889v-8h-4z" fill="currentColor"/>
    </g>

    <!-- card-icon -->
    <g id="hpa-profile">
      <path xmlns="http://www.w3.org/2000/svg" fill-rule="evenodd" clip-rule="evenodd" d="M9.517 0H6.483a2.221 2.221 0 00-2.208 2.468l.394 3.555A2.223 2.223 0 006.877 8h2.246a2.223 2.223 0 002.208-1.977l.394-3.555A2.222 2.222 0 009.517 0m0 1.333a.886.886 0 01.884.987l-.396 3.556a.887.887 0 01-.882.79H6.877a.889.889 0 01-.883-.79L5.599 2.32a.879.879 0 01.221-.69.88.88 0 01.663-.297h3.034m2.938 8.89h-8.91C1.474 10.222 0 11.757 0 14.05 0 15.625.696 16 1.796 16h12.408c1.29 0 1.796-.754 1.796-1.95 0-2.29-1.474-3.828-3.545-3.828m0 1.334c.626 0 1.205.253 1.63.712.425.46.585.923.585 1.68 0 .415-.106.719-.466.719H1.796c-.264 0-.466-.207-.466-.719 0-.638.159-1.22.585-1.68a2.202 2.202 0 011.63-.712h8.91" fill="currentColor"/>
    </g>

    <!--pin-icon-->
    <g id="pin-icon">
      <path d="M12.0001 14C13.657 14 15.0001 12.6569 15.0001 11C15.0001 9.34315 13.657 8 12.0001 8C10.3433 8 9.00012 9.34315 9.00012 11C9.00012 12.6569 10.3433 14 12.0001 14Z" stroke="#FDB31B" stroke-width="2" stroke-linecap="round" stroke-linejoin="round"/>
      <path d="M17.6571 16.657L13.4141 20.9C13.0391 21.2746 12.5307 21.4851 12.0006 21.4851C11.4705 21.4851 10.9621 21.2746 10.5871 20.9L6.34313 16.657C5.22435 15.5382 4.46246 14.1127 4.15381 12.5609C3.84516 11.009 4.00362 9.40051 4.60913 7.93873C5.21464 6.47694 6.24002 5.22754 7.55561 4.3485C8.87119 3.46947 10.4179 3.00029 12.0001 3.00029C13.5824 3.00029 15.1291 3.46947 16.4446 4.3485C17.7602 5.22754 18.7856 6.47694 19.3911 7.93873C19.9966 9.40051 20.1551 11.009 19.8464 12.5609C19.5378 14.1127 18.7759 15.5382 17.6571 16.657V16.657Z" stroke="#FDB31B" stroke-width="2" stroke-linecap="round" stroke-linejoin="round"/>
    </g>
    <g id="hpa-hamburguer-menu">
      <rect width="14.6667" height="1.83333" rx="0.916667" fill="#06623A"/>
      <rect y="4.58333" width="14.6667" height="1.83333" rx="0.916667" fill="#06623A"/>
      <rect y="9.16667" width="14.6667" height="1.83333" rx="0.916667" fill="#06623A"/>
    </g>
    <g id="nav-home">
      <path d="M15.9292 7.3942C15.9287 7.39381 15.9283 7.39329 15.9279 7.3929L9.25008 0.458489C8.96545 0.162773 8.58701 0 8.18447 0C7.78193 0 7.40349 0.162773 7.11873 0.458489L0.444398 7.3894C0.44215 7.39173 0.439777 7.3942 0.437653 7.39653C-0.146861 8.00703 -0.145862 8.99755 0.440526 9.60649C0.708428 9.88482 1.06213 10.0459 1.44045 10.0629C1.45593 10.0645 1.47142 10.0652 1.48703 10.0652H1.75306V15.1684C1.75306 16.1784 2.5444 17 3.51697 17H6.12955C6.39446 17 6.60915 16.777 6.60915 16.502V12.501C6.60915 12.0402 6.97023 11.6653 7.41398 11.6653H8.95495C9.39871 11.6653 9.75966 12.0402 9.75966 12.501V16.502C9.75966 16.777 9.97436 17 10.2393 17H12.8518C13.8245 17 14.6158 16.1784 14.6158 15.1684V10.0652H14.8625C15.265 10.0652 15.6434 9.90246 15.9283 9.60662C16.5153 8.99677 16.5155 8.00443 15.9292 7.3942ZM15.25 8.90235C15.1464 9.00987 15.0088 9.06914 14.8625 9.06914H14.1362C13.8712 9.06914 13.6565 9.2921 13.6565 9.56719V15.1684C13.6565 15.6291 13.2956 16.0039 12.8518 16.0039H10.7189V12.501C10.7189 11.491 9.92765 10.6692 8.95495 10.6692H7.41398C6.44129 10.6692 5.64995 11.491 5.64995 12.501V16.0039H3.51697C3.07334 16.0039 2.71226 15.6291 2.71226 15.1684V9.56719C2.71226 9.2921 2.49757 9.06914 2.23266 9.06914H1.51876C1.51126 9.06862 1.50389 9.06823 1.49627 9.0681C1.35339 9.06551 1.21938 9.00663 1.11896 8.90222C0.90539 8.68043 0.90539 8.31948 1.11896 8.09756C1.11909 8.09756 1.11909 8.09743 1.11921 8.0973L1.11959 8.09691L7.79717 1.16276C7.90058 1.05524 8.03809 0.996096 8.18447 0.996096C8.33072 0.996096 8.46823 1.05524 8.57177 1.16276L15.2479 8.09548C15.2489 8.09652 15.25 8.09756 15.251 8.0986C15.4634 8.32077 15.463 8.68095 15.25 8.90235Z" fill="black"/>
    </g>
    <g id="ship-info-pdp">
      <g clip-path="url(#clip0)">
        <path d="M16.6159 13.08C15.0868 13.08 13.8428 14.324 13.8428 15.8531C13.8428 17.3823 15.0868 18.6263 16.6159 18.6263C18.1453 18.6263 19.389 17.3823 19.389 15.8531C19.389 14.324 18.145 13.08 16.6159 13.08ZM16.6159 17.2397C15.8512 17.2397 15.2293 16.6178 15.2293 15.8531C15.2293 15.0885 15.8512 14.4666 16.6159 14.4666C17.3806 14.4666 18.0025 15.0885 18.0025 15.8531C18.0025 16.6179 17.3806 17.2397 16.6159 17.2397Z" fill="#06623A"/>
        <path d="M7.14128 13.08C5.61215 13.08 4.36816 14.324 4.36816 15.8531C4.36816 17.3823 5.61215 18.6263 7.14128 18.6263C8.67041 18.6263 9.9144 17.3823 9.9144 15.8531C9.9144 14.324 8.67041 13.08 7.14128 13.08ZM7.14128 17.2397C6.37661 17.2397 5.75472 16.6178 5.75472 15.8531C5.75472 15.0885 6.37661 14.4666 7.14128 14.4666C7.90574 14.4666 8.52784 15.0885 8.52784 15.8531C8.52784 16.6179 7.90595 17.2397 7.14128 17.2397Z" fill="#06623A"/>
        <path d="M18.4828 5.14222C18.3649 4.90812 18.1252 4.76044 17.8632 4.76044H14.2119V6.147H17.4356L19.3234 9.90179L20.5626 9.27874L18.4828 5.14222Z" fill="#06623A"/>
        <path d="M14.5358 15.1825H9.29004V16.5691H14.5358V15.1825Z" fill="#06623A"/>
        <path d="M5.06143 15.1825H2.6581C2.27516 15.1825 1.96484 15.4929 1.96484 15.8758C1.96484 16.2587 2.27521 16.569 2.6581 16.569H5.06147C5.44441 16.569 5.75473 16.2586 5.75473 15.8758C5.75473 15.4928 5.44437 15.1825 5.06143 15.1825Z" fill="#06623A"/>
        <path d="M21.8549 10.9446L20.4913 9.1883C20.3603 9.01913 20.1581 8.92021 19.9438 8.92021H14.906V4.06728C14.906 3.68434 14.5956 3.37402 14.2127 3.37402H2.6581C2.27516 3.37402 1.96484 3.68439 1.96484 4.06728C1.96484 4.45018 2.27521 4.76054 2.6581 4.76054H13.5194V9.61347C13.5194 9.99641 13.8298 10.3067 14.2127 10.3067H19.6043L20.614 11.6073V15.1828H18.6959C18.3129 15.1828 18.0026 15.4931 18.0026 15.876C18.0026 16.259 18.313 16.5693 18.6959 16.5693H21.3072C21.6902 16.5693 22.0005 16.2589 22.0005 15.876V11.3698C22.0005 11.2159 21.9492 11.0662 21.8549 10.9446Z" fill="#06623A"/>
        <path d="M5.01419 11.67H1.82509C1.44216 11.67 1.13184 11.9803 1.13184 12.3632C1.13184 12.7462 1.4422 13.0565 1.82509 13.0565H5.01415C5.39709 13.0565 5.70741 12.7461 5.70741 12.3632C5.70745 11.9803 5.39709 11.67 5.01419 11.67Z" fill="#06623A"/>
        <path d="M6.60924 8.94348H0.693258C0.310363 8.94348 0 9.25384 0 9.63678C0 10.0197 0.310363 10.33 0.693258 10.33H6.60924C6.99218 10.33 7.3025 10.0197 7.3025 9.63678C7.3025 9.25389 6.99218 8.94348 6.60924 8.94348Z" fill="#06623A"/>
        <path d="M7.74107 6.21655H1.82509C1.44216 6.21655 1.13184 6.52692 1.13184 6.90981C1.13184 7.29275 1.4422 7.60307 1.82509 7.60307H7.74107C8.12401 7.60307 8.43433 7.29271 8.43433 6.90981C8.43437 6.52692 8.12401 6.21655 7.74107 6.21655Z" fill="#06623A"/>
      </g>
      <defs>
        <clipPath id="clip0">
          <rect width="22" height="22" fill="white"/>
        </clipPath>
      </defs>
    </g>
    <!-- universos -->
    <g id="universos">
      <path d="M4.72144 4.39639L6.88154 2.23618L7.18803 2.54256L5.02782 4.70277L4.72144 4.39639Z" fill="#06623A"/>
      <path d="M5.15796 6.12643L7.97695 3.30743L8.28333 3.61392L5.46445 6.43281L5.15796 6.12643Z" fill="#06623A"/>
      <path d="M8.97607 0V0.433333C10.2978 0.433333 11.3594 1.49498 11.3594 2.81667V10.8333H10.0594V11.2667H11.3594V12.5667H10.0594V13H11.7927V2.81667C11.7927 1.25662 10.5361 0 8.97607 0Z" fill="#06623A"/>
      <path d="M6.59266 0C4.92439 0 3.55933 1.36496 3.55933 3.03333V6.67329C3.55933 6.69498 3.53774 6.71667 3.51606 6.71667C3.49437 6.71667 3.49437 6.71667 3.49437 6.69498L2.86606 5.11335C2.69266 4.65833 2.19437 4.44167 1.73935 4.61496C1.3277 4.76667 1.11103 5.22169 1.21937 5.65502L2.69266 11.0717V13H9.62599V3.03333C9.62599 1.36496 8.26104 0 6.59266 0ZM9.19266 12.5667H3.12599V11.2667H8.54266V10.8333H3.06103L1.63101 5.525C1.56606 5.28665 1.69608 5.04829 1.93433 4.98333C2.15099 4.91838 2.36766 5.02671 2.45441 5.24338L3.08272 6.825C3.16937 7.06335 3.45099 7.19338 3.68935 7.08504C3.86274 7.01998 3.99266 6.84669 3.99266 6.65171V3.03333C3.99266 1.60331 5.16274 0.433333 6.59266 0.433333C8.02268 0.433333 9.19266 1.60331 9.19266 3.03333V12.5667Z" fill="#06623A"/>
      <path d="M3.58105 11.7H4.44772V12.1333H3.58105V11.7Z" fill="#06623A"/>
    </g>
    <!-- instagram-icon-top -->
    <g id="instagram">
      <path d="M10.6667 2.66667H5.33335C3.86059 2.66667 2.66669 3.86057 2.66669 5.33333V10.6667C2.66669 12.1394 3.86059 13.3333 5.33335 13.3333H10.6667C12.1394 13.3333 13.3334 12.1394 13.3334 10.6667V5.33333C13.3334 3.86057 12.1394 2.66667 10.6667 2.66667Z" stroke="#F2FFF9" stroke-width="1.2" stroke-linecap="round" stroke-linejoin="round"/>
      <path d="M8 10C9.10457 10 10 9.10457 10 8C10 6.89543 9.10457 6 8 6C6.89543 6 6 6.89543 6 8C6 9.10457 6.89543 10 8 10Z" stroke="#F2FFF9" stroke-width="1.2" stroke-linecap="round" stroke-linejoin="round"/>
      <path d="M11 5V5.001" stroke="#F2FFF9" stroke-width="1.2" stroke-linecap="round" stroke-linejoin="round"/>
    </g>
    <!-- facebook-icon-top -->
    <g id="facebook">
      <path d="M4.66669 6.66667V9.33333H6.66669V14H9.33335V9.33333H11.3334L12 6.66667H9.33335V5.33333C9.33335 5.15652 9.40359 4.98695 9.52862 4.86193C9.65364 4.7369 9.82321 4.66667 10 4.66667H12V2H10C9.11597 2 8.26812 2.35119 7.643 2.97631C7.01788 3.60143 6.66669 4.44928 6.66669 5.33333V6.66667H4.66669Z" stroke="#F2FFF9" stroke-width="1.2" stroke-linecap="round" stroke-linejoin="round"/>
    </g>
    <!-- whatsapp-icon-top -->
    <g id="whatsapp">
      <path d="M2 14.0001L3.1 11.4668C2.25844 10.2721 1.88178 8.81145 2.0407 7.35883C2.19961 5.90621 2.88319 4.56152 3.96314 3.5771C5.04309 2.59269 6.44517 2.03623 7.90625 2.01216C9.36734 1.98808 10.787 2.49804 11.8988 3.44634C13.0106 4.39463 13.7381 5.71608 13.9448 7.16267C14.1515 8.60926 13.8231 10.0816 13.0214 11.3033C12.2197 12.525 10.9996 13.4121 9.59026 13.7982C8.1809 14.1842 6.67908 14.0427 5.36667 13.4001L2 14.0001" stroke="#F2FFF9" stroke-width="1.2" stroke-linecap="round" stroke-linejoin="round"/>
      <path d="M6 6.66667C6 6.75507 6.03512 6.83986 6.09763 6.90237C6.16014 6.96488 6.24493 7 6.33333 7C6.42174 7 6.50652 6.96488 6.56904 6.90237C6.63155 6.83986 6.66667 6.75507 6.66667 6.66667V6C6.66667 5.91159 6.63155 5.82681 6.56904 5.7643C6.50652 5.70178 6.42174 5.66667 6.33333 5.66667C6.24493 5.66667 6.16014 5.70178 6.09763 5.7643C6.03512 5.82681 6 5.91159 6 6V6.66667ZM6 6.66667C6 7.55072 6.35119 8.39857 6.97631 9.02369C7.60143 9.64881 8.44928 10 9.33333 10H10C10.0884 10 10.1732 9.96488 10.2357 9.90237C10.2982 9.83986 10.3333 9.75507 10.3333 9.66667C10.3333 9.57826 10.2982 9.49348 10.2357 9.43096C10.1732 9.36845 10.0884 9.33333 10 9.33333H9.33333C9.24493 9.33333 9.16014 9.36845 9.09763 9.43096C9.03512 9.49348 9 9.57826 9 9.66667C9 9.75507 9.03512 9.83986 9.09763 9.90237C9.16014 9.96488 9.24493 10 9.33333 10" stroke="#F2FFF9" stroke-width="1.2" stroke-linecap="round" stroke-linejoin="round"/>
    </g>
  </defs>
</svg>
